# xmcd CD database file
#
# Track frame offsets:
#	150
#	6094
#	22350
#	42810
#	59205
#
# Disc length: 995 seconds
#
# Revision: 0
# Processed by: cddbd v1.5.1PL2 Copyright (c) Steve Scherf et al.
# Submitted via: CDex 1.51
#
DISCID=4203e105
DTITLE=カルカヤマコト - GAL ANTHEM
DYEAR=1900
DGENRE=Reggae
TTITLE0=HAPPY BIRTHDAY TO YOU
TTITLE1=GAL ANTHEM
TTITLE2=Young Born
TTITLE3=GAL ANTHEM  (輸入盤ヴァージョン)
TTITLE4=GAL ANTHEM  (コーラスヴァージョン)
EXTD=
EXTT0=
EXTT1=
EXTT2=
EXTT3=
EXTT4=
PLAYORDER=
